<?xml version="1.0" encoding="utf-8"?>
<!-- Generator: Adobe Illustrator 22.1.0, SVG Export Plug-In . SVG Version: 6.00 Build 0)  -->
<svg version="1.1" id="Ebene_1" xmlns="http://www.w3.org/2000/svg" xmlns:xlink="http://www.w3.org/1999/xlink" x="0px" y="0px"
	 viewBox="0 0 192.8 51" style="enable-background:new 0 0 192.8 51;" xml:space="preserve">
<style type="text/css">
	.st0{fill:#C5C6C6;}
	.st1{fill:#005E9B;}
	.st2{stroke:#000000;stroke-width:0.5;}
</style>
<g>
	<polygon class="st0" points="29.1,4.8 45.2,1.1 48.9,17.2 32.8,20.9 	"/>
	<path class="st1" d="M30.7,31.7h16.5v16.5H30.7V31.7L30.7,31.7z M1.8,31.7h16.5v16.5H1.8V31.7L1.8,31.7z M1.8,2.8h16.5v16.5H1.8
		V2.8z"/>
	<g>
		<path d="M60.2,31.7H61v2.9h2.3v-2.9h0.8v6.7h-0.8v-3.1H61v3.1h-0.8V31.7z"/>
		<path d="M66.6,35.9c0-1.2,0.4-1.9,1.1-1.9c0.8,0,1.1,0.6,1.1,1.9c0,1.2-0.4,1.9-1.1,1.9C66.9,37.8,66.6,37.1,66.6,35.9z
			 M65.7,35.9c0,1.5,0.7,2.5,2,2.5c1.3,0,2-1,2-2.5c0-1.5-0.7-2.5-2-2.5C66.4,33.4,65.7,34.4,65.7,35.9z"/>
		<path d="M73.9,34.3c-0.3-0.2-0.6-0.2-0.9-0.2c-0.8,0-1.3,0.5-1.3,1.9c0,1.1,0.5,1.8,1.3,1.8c0.4,0,0.7-0.1,1-0.3l0,0.7
			c-0.2,0.1-0.7,0.2-1,0.2c-1.5,0-2.2-1.1-2.2-2.5c0-1.6,0.8-2.6,2.2-2.6c0.3,0,0.7,0.1,1,0.2L73.9,34.3z"/>
		<path d="M75.2,31.2H76v3h0c0.2-0.4,0.6-0.7,1.2-0.7c0.9,0,1.4,0.5,1.4,1.6v3.4h-0.8v-3.2c0-0.8-0.3-1.1-0.8-1.1
			c-0.6,0-1,0.4-1,1.3v2.9h-0.8V31.2z"/>
		<path d="M80,37.4c0.4,0.2,0.8,0.4,1.2,0.4c0.6,0,0.9-0.3,0.9-0.7c0-0.3-0.2-0.6-0.6-0.8l-0.5-0.2c-0.7-0.3-1-0.6-1-1.3
			c0-0.8,0.6-1.4,1.6-1.4c0.4,0,0.8,0.1,1,0.2l0,0.7c-0.2-0.1-0.6-0.2-1-0.2c-0.5,0-0.8,0.3-0.8,0.7c0,0.4,0.3,0.6,0.8,0.8l0.3,0.1
			c0.6,0.2,1,0.6,1,1.2c0,0.8-0.4,1.5-1.6,1.5c-0.5,0-1-0.1-1.3-0.3L80,37.4z"/>
		<path d="M87.1,34.3c-0.3-0.2-0.6-0.2-0.9-0.2c-0.8,0-1.3,0.5-1.3,1.9c0,1.1,0.5,1.8,1.3,1.8c0.4,0,0.7-0.1,1-0.3l0,0.7
			c-0.2,0.1-0.7,0.2-1,0.2c-1.5,0-2.2-1.1-2.2-2.5c0-1.6,0.8-2.6,2.2-2.6c0.3,0,0.7,0.1,1,0.2L87.1,34.3z"/>
		<path d="M88.3,31.2h0.8v3h0c0.2-0.4,0.6-0.7,1.2-0.7c0.9,0,1.4,0.5,1.4,1.6v3.4H91v-3.2c0-0.8-0.3-1.1-0.8-1.1c-0.6,0-1,0.4-1,1.3
			v2.9h-0.8V31.2z"/>
		<path d="M96.8,37.3c0,0.4,0,0.7,0,1.1h-0.8l0-0.7h0c-0.3,0.6-0.7,0.8-1.2,0.8c-0.9,0-1.4-0.5-1.4-1.6v-3.4h0.8v3.2
			c0,0.8,0.3,1.1,0.8,1.1c0.6,0,1-0.4,1-1.3v-2.9h0.8V37.3z"/>
		<path d="M98.5,31.2h0.8v7.2h-0.8V31.2z"/>
		<path d="M101.6,35.5c0-1.1,0.5-1.5,1-1.5c0.6,0,1,0.5,1,1.5H101.6z M104.4,36.2v-0.4c0-1.4-0.6-2.3-1.7-2.3c-1.2,0-1.9,1-1.9,2.5
			c0,1.5,0.7,2.5,2,2.5c0.5,0,1-0.1,1.4-0.3l0-0.7c-0.3,0.2-0.7,0.4-1.1,0.4c-0.9,0-1.3-0.5-1.3-1.7H104.4z"/>
		<path d="M60.2,43.9h-0.8v-0.6h0.8v-1.1c0-0.8,0.4-1.3,1.2-1.3c0.2,0,0.5,0,0.6,0.1v0.7c-0.1-0.1-0.3-0.1-0.5-0.1
			c-0.5,0-0.6,0.2-0.6,0.7v1h0.9v0.6H61v4.2h-0.8V43.9z"/>
		<path d="M63.5,41.3h0.8v1h-0.8V41.3z M65.1,41.3h0.8v1h-0.8V41.3z M66.4,47.1c0,0.4,0,0.7,0,1.1h-0.8l0-0.7h0
			c-0.3,0.6-0.7,0.8-1.2,0.8c-0.9,0-1.4-0.5-1.4-1.6v-3.4h0.8v3.2c0,0.8,0.3,1.1,0.8,1.1c0.6,0,1-0.4,1-1.3v-2.9h0.8V47.1z"/>
		<path d="M68,44.3c0-0.4,0-0.7,0-1.1h0.8l0,0.8h0c0.3-0.6,0.7-0.8,1.4-0.8V44c-0.1,0-0.2,0-0.3,0c-0.6,0-1.1,0.5-1.1,1.6v2.6H68
			V44.3z"/>
		<path d="M74.6,45.7l1.1-3.3h0l1,3.3H74.6z M75.2,41.4L73,48.1h0.8l0.5-1.8h2.6l0.5,1.8h0.9l-2.2-6.7H75.2z"/>
		<path d="M79.4,44.3c0-0.4,0-0.7,0-1.1h0.8l0,0.7h0c0.3-0.6,0.7-0.8,1.2-0.8c0.9,0,1.4,0.5,1.4,1.6v3.4H82V45
			c0-0.8-0.3-1.1-0.8-1.1c-0.6,0-1,0.4-1,1.3v2.9h-0.8V44.3z"/>
		<path d="M85,45.7c0-1.2,0.3-1.9,1.1-1.9c0.7,0,1.1,0.6,1.1,1.9c0,1.2-0.3,1.9-1.1,1.9C85.3,47.6,85,46.9,85,45.7z M88,44.1
			c0-0.3,0-0.6,0-0.9h-0.8l0,0.7h0c-0.3-0.5-0.7-0.8-1.2-0.8c-1.1,0-1.8,0.8-1.8,2.5c0,1.7,0.7,2.5,1.7,2.5c0.5,0,1-0.3,1.3-0.8h0
			v0.8c0,0.8-0.4,1.4-1.4,1.4c-0.4,0-1-0.2-1.3-0.4l0,0.8c0.4,0.1,1,0.3,1.4,0.3c1.1,0,2.1-0.6,2.1-1.9V44.1z"/>
		<path d="M90.1,45.3c0-1.1,0.5-1.5,1-1.5c0.6,0,1,0.5,1,1.5H90.1z M92.9,45.9v-0.4c0-1.4-0.6-2.3-1.7-2.3c-1.2,0-1.9,1-1.9,2.5
			c0,1.5,0.7,2.5,2,2.5c0.5,0,1-0.1,1.4-0.3l0-0.7c-0.3,0.2-0.7,0.4-1.1,0.4c-0.9,0-1.3-0.5-1.3-1.7H92.9z"/>
		<path d="M98.8,48.1h-0.9l-1-4.1h0l-0.9,4.1H95l-1.3-4.9h0.8l0.9,4.1h0l0.9-4.1h1l1,4.1h0l0.9-4.1h0.8L98.8,48.1z"/>
		<path d="M103.5,46.4c0,0.7-0.4,1.2-1.1,1.2c-0.6,0-0.8-0.3-0.8-0.9c0-0.6,0.5-1,1.4-1c0.2,0,0.4,0,0.6,0V46.4z M101.3,44.3
			c0.3-0.3,0.8-0.5,1.3-0.5c0.3,0,0.7,0.1,0.8,0.3c0.2,0.2,0.2,0.4,0.2,0.8v0.2h-0.5c-1.7,0-2.3,0.7-2.3,1.7c0,0.9,0.6,1.4,1.4,1.4
			c0.8,0,1.2-0.4,1.4-0.7h0l0,0.7h0.7c0-0.2,0-0.5,0-0.7v-2.6c0-0.7-0.2-1-0.4-1.2c-0.2-0.2-0.6-0.5-1.3-0.5c-0.5,0-1,0.1-1.4,0.4
			L101.3,44.3z"/>
		<path d="M105.9,44.3c0-0.4,0-0.7,0-1.1h0.8l0,0.7h0c0.3-0.6,0.7-0.8,1.2-0.8c0.9,0,1.4,0.5,1.4,1.6v3.4h-0.8V45
			c0-0.8-0.3-1.1-0.8-1.1c-0.6,0-1,0.4-1,1.3v2.9h-0.8V44.3z"/>
		<path d="M113.6,45.7c0,1.2-0.3,1.9-1.1,1.9c-0.7,0-1.1-0.6-1.1-1.9c0-1.2,0.3-1.9,1.1-1.9C113.3,43.8,113.6,44.5,113.6,45.7z
			 M114.4,40.9h-0.8v3h0c-0.3-0.5-0.7-0.7-1.3-0.7c-1,0-1.7,0.8-1.7,2.5c0,1.7,0.7,2.5,1.7,2.5c0.7,0,1.1-0.4,1.3-0.8h0l0,0.7h0.8
			c0-0.3,0-0.6,0-0.9V40.9z"/>
		<path d="M118.1,48.1c-0.2,0.1-0.5,0.1-0.7,0.1c-0.7,0-1.1-0.3-1.1-1.2v-3.2h-0.8v-0.6h0.8v-1l0.8-0.2v1.2h1v0.6h-1v2.9
			c0,0.6,0.1,0.8,0.5,0.8c0.2,0,0.3-0.1,0.5-0.1V48.1z"/>
		<path d="M119.8,45.3c0-1.1,0.5-1.5,1-1.5c0.6,0,1,0.5,1,1.5H119.8z M122.6,45.9v-0.4c0-1.4-0.6-2.3-1.7-2.3c-1.2,0-1.9,1-1.9,2.5
			c0,1.5,0.7,2.5,2,2.5c0.5,0,1-0.1,1.4-0.3l0-0.7c-0.3,0.2-0.7,0.4-1.1,0.4c-0.9,0-1.3-0.5-1.3-1.7H122.6z"/>
		<path d="M125.6,41.4h0.9l1.1,5.4h0l1.2-5.4h1.1l1.2,5.4h0l1.2-5.4h0.8l-1.5,6.7h-1l-1.3-5.7h0l-1.3,5.7h-1L125.6,41.4z"/>
		<path d="M134.2,43.2h0.8v4.9h-0.8V43.2z M135.1,41.2v1h-0.9v-1H135.1z"/>
		<path d="M136.5,47.2c0.4,0.2,0.8,0.4,1.2,0.4c0.6,0,0.9-0.3,0.9-0.7c0-0.3-0.2-0.6-0.6-0.8l-0.5-0.2c-0.7-0.3-1-0.6-1-1.3
			c0-0.8,0.6-1.4,1.6-1.4c0.4,0,0.8,0.1,1,0.2l0,0.7c-0.2-0.1-0.6-0.2-1-0.2c-0.5,0-0.8,0.3-0.8,0.7c0,0.4,0.3,0.6,0.8,0.8l0.3,0.1
			c0.6,0.2,1,0.6,1,1.2c0,0.8-0.4,1.5-1.6,1.5c-0.5,0-1-0.1-1.3-0.3L136.5,47.2z"/>
		<path d="M140.5,47.2c0.4,0.2,0.8,0.4,1.2,0.4c0.6,0,0.9-0.3,0.9-0.7c0-0.3-0.2-0.6-0.6-0.8l-0.5-0.2c-0.7-0.3-1-0.6-1-1.3
			c0-0.8,0.6-1.4,1.6-1.4c0.4,0,0.8,0.1,1,0.2l0,0.7c-0.2-0.1-0.6-0.2-1-0.2c-0.5,0-0.8,0.3-0.8,0.7c0,0.4,0.3,0.6,0.8,0.8l0.3,0.1
			c0.6,0.2,1,0.6,1,1.2c0,0.8-0.4,1.5-1.6,1.5c-0.5,0-1-0.1-1.3-0.3L140.5,47.2z"/>
		<path d="M145.2,45.3c0-1.1,0.5-1.5,1-1.5c0.6,0,1,0.5,1,1.5H145.2z M148,45.9v-0.4c0-1.4-0.6-2.3-1.7-2.3c-1.2,0-1.9,1-1.9,2.5
			c0,1.5,0.7,2.5,2,2.5c0.5,0,1-0.1,1.4-0.3l0-0.7c-0.3,0.2-0.7,0.4-1.1,0.4c-0.9,0-1.3-0.5-1.3-1.7H148z"/>
		<path d="M149.3,44.3c0-0.4,0-0.7,0-1.1h0.8l0,0.7h0c0.3-0.6,0.7-0.8,1.2-0.8c0.8,0,1.4,0.5,1.4,1.6v3.4H152V45
			c0-0.8-0.3-1.1-0.8-1.1c-0.6,0-1,0.4-1,1.3v2.9h-0.8V44.3z"/>
		<path d="M154.2,47.2c0.4,0.2,0.8,0.4,1.2,0.4c0.6,0,0.9-0.3,0.9-0.7c0-0.3-0.2-0.6-0.6-0.8l-0.5-0.2c-0.7-0.3-1-0.6-1-1.3
			c0-0.8,0.6-1.4,1.6-1.4c0.4,0,0.8,0.1,1,0.2l0,0.7c-0.2-0.1-0.6-0.2-1-0.2c-0.5,0-0.8,0.3-0.8,0.7c0,0.4,0.3,0.6,0.8,0.8l0.3,0.1
			c0.6,0.2,1,0.6,1,1.2c0,0.8-0.4,1.5-1.6,1.5c-0.5,0-1-0.1-1.3-0.3L154.2,47.2z"/>
		<path d="M161.2,44.1c-0.3-0.2-0.6-0.2-0.9-0.2c-0.8,0-1.3,0.5-1.3,1.9c0,1.1,0.5,1.8,1.3,1.8c0.4,0,0.7-0.1,1-0.3l0,0.7
			c-0.2,0.1-0.7,0.2-1,0.2c-1.5,0-2.2-1.1-2.2-2.5c0-1.6,0.8-2.6,2.2-2.6c0.3,0,0.7,0.1,1,0.2L161.2,44.1z"/>
		<path d="M162.5,40.9h0.8v3h0c0.2-0.4,0.6-0.7,1.2-0.7c0.8,0,1.4,0.5,1.4,1.6v3.4h-0.8V45c0-0.8-0.3-1.1-0.8-1.1
			c-0.6,0-1,0.4-1,1.3v2.9h-0.8V40.9z"/>
		<path d="M170.1,46.4c0,0.7-0.4,1.2-1.1,1.2c-0.6,0-0.8-0.3-0.8-0.9c0-0.6,0.5-1,1.4-1c0.2,0,0.4,0,0.6,0V46.4z M167.8,44.3
			c0.3-0.3,0.8-0.5,1.3-0.5c0.3,0,0.7,0.1,0.8,0.3c0.2,0.2,0.2,0.4,0.2,0.8v0.2h-0.5c-1.7,0-2.3,0.7-2.3,1.7c0,0.9,0.6,1.4,1.4,1.4
			c0.8,0,1.2-0.4,1.4-0.7h0l0,0.7h0.7c0-0.2,0-0.5,0-0.7v-2.6c0-0.7-0.2-1-0.4-1.2c-0.2-0.2-0.6-0.5-1.3-0.5c-0.5,0-1,0.1-1.4,0.4
			L167.8,44.3z"/>
		<path d="M172.8,43.9H172v-0.6h0.8v-1.1c0-0.8,0.4-1.3,1.2-1.3c0.2,0,0.5,0,0.6,0.1v0.7c-0.1-0.1-0.3-0.1-0.5-0.1
			c-0.5,0-0.6,0.2-0.6,0.7v1h0.9v0.6h-0.9v4.2h-0.8V43.9z"/>
		<path d="M177.7,48.1c-0.2,0.1-0.5,0.1-0.7,0.1c-0.7,0-1.1-0.3-1.1-1.2v-3.2h-0.8v-0.6h0.8v-1l0.8-0.2v1.2h1v0.6h-1v2.9
			c0,0.6,0.1,0.8,0.5,0.8c0.2,0,0.3-0.1,0.5-0.1V48.1z"/>
		<path d="M179.4,45.3c0-1.1,0.5-1.5,1-1.5c0.6,0,1,0.5,1,1.5H179.4z M182.1,45.9v-0.4c0-1.4-0.6-2.3-1.7-2.3c-1.2,0-1.9,1-1.9,2.5
			c0,1.5,0.7,2.5,2,2.5c0.5,0,1-0.1,1.4-0.3l0-0.7c-0.3,0.2-0.7,0.4-1.1,0.4c-0.9,0-1.3-0.5-1.3-1.7H182.1z"/>
		<path d="M183.5,44.3c0-0.4,0-0.7,0-1.1h0.8l0,0.7h0c0.3-0.6,0.7-0.8,1.2-0.8c0.9,0,1.4,0.5,1.4,1.6v3.4h-0.8V45
			c0-0.8-0.3-1.1-0.8-1.1c-0.6,0-1,0.4-1,1.3v2.9h-0.8V44.3z"/>
	</g>
	<g>
		<g>
			<g>
				<path class="st2" d="M60.3,3.1H68v1.8h-5.5v5.1h5.3v1.8h-5.3v7.5h-2.2V3.1z"/>
				<path class="st2" d="M71.2,3.1h2.2v6.9h6V3.1h2.2v16.1h-2.2v-7.5h-6v7.5h-2.2V3.1z"/>
				<path class="st2" d="M92.9,5.4C92.1,4.9,91,4.7,90,4.7c-1.6,0-2.7,1-2.7,2.4c0,1,0.4,1.7,2.9,3c2.7,1.4,3.6,2.8,3.6,4.7
					c0,2.6-1.7,4.6-5,4.6c-1.4,0-2.7-0.3-3.6-0.7v-2.1c1,0.6,2.3,1,3.3,1c2,0,3.1-1.2,3.1-2.5c0-1.2-0.3-2-2.7-3.3
					C85.7,10,85,9,85,6.9c0-2.7,2.2-4,4.8-4c1.1,0,2.4,0.2,3.1,0.5V5.4z"/>
				<path class="st2" d="M110.6,5.4c-0.8-0.5-1.9-0.7-2.9-0.7c-1.6,0-2.7,1-2.7,2.4c0,1,0.4,1.7,2.9,3c2.7,1.4,3.6,2.8,3.6,4.7
					c0,2.6-1.7,4.6-5,4.6c-1.4,0-2.7-0.3-3.6-0.7v-2.1c1,0.6,2.3,1,3.3,1c2,0,3.1-1.2,3.1-2.5c0-1.2-0.3-2-2.7-3.3
					c-3.1-1.8-3.8-2.7-3.8-4.8c0-2.7,2.2-4,4.8-4c1.1,0,2.4,0.2,3.1,0.5V5.4z"/>
				<path class="st2" d="M120,19c-0.5,0.2-1.2,0.3-1.8,0.3c-1.9,0-2.9-0.7-2.9-2.8V9h-2V7.4h2V5l2.1-0.6v3h2.6V9h-2.6v7
					c0,1.3,0.4,1.9,1.3,1.9c0.5,0,0.9-0.1,1.3-0.3V19z"/>
				<path class="st2" d="M122.4,16.6h2.4v2.6h-2.4V16.6z"/>
				<path class="st2" d="M139.1,18.5c-1,0.3-2.7,0.8-4.3,0.8c-5.5,0-7.8-3.9-7.8-8.2c0-5,3.1-8.2,7.6-8.2c1.5,0,2.9,0.2,4.1,0.7v2
					c-1.3-0.6-2.8-1-4-1c-2.8,0-5.4,2.1-5.4,6c0,4.1,1.8,6.9,5.5,6.9c0.7,0,1.6-0.2,2.2-0.4v-5.1h-2.9v-1.8h5V18.5z"/>
				<path class="st2" d="M149.4,14.9c0,1.6-1.1,3-3,3c-1.4,0-2.1-0.8-2.1-2c0-1.4,1.2-2.4,3.6-2.4c0.6,0,1.1,0,1.5,0V14.9z
					 M143.6,10c0.7-0.7,2-1.2,3.3-1.2c0.9,0,1.7,0.2,2.1,0.7c0.4,0.5,0.5,1,0.5,1.9V12h-1.2c-4.3,0-5.9,1.7-5.9,4
					c0,2.3,1.6,3.4,3.6,3.4c1.9,0,3-0.9,3.6-1.8h0l0.1,1.6h1.9c0-0.4-0.1-1.1-0.1-1.8v-6.1c0-1.7-0.5-2.4-1.1-2.9
					c-0.4-0.4-1.5-1.1-3.4-1.1c-1.2,0-2.5,0.3-3.6,1L143.6,10z"/>
				<path class="st2" d="M155,3h2.1v16.2H155V3z"/>
				<path class="st2" d="M160.8,3h2.1v16.2h-2.1V3z"/>
				<path class="st2" d="M168,12.4c0.1-2.7,1.2-3.6,2.6-3.6c1.7,0,2.5,1.2,2.5,3.6H168z M175.2,13.9v-1c0-3.4-1.6-5.6-4.4-5.6
					c-3.1,0-4.9,2.4-4.9,6c0,3.7,1.7,6.1,5.1,6.1c1.3,0,2.6-0.3,3.5-0.7l-0.1-1.8c-0.7,0.5-1.9,1-2.9,1c-2.3,0-3.4-1.3-3.4-4H175.2z
					"/>
				<path class="st2" d="M177.8,9.9c0-0.9-0.1-1.7-0.1-2.5h2l0.1,1.7h0c0.7-1.3,1.7-1.9,3.2-1.9c2.2,0,3.7,1.2,3.7,3.8v8.2h-2.1
					v-7.6c0-1.9-0.7-2.7-2.1-2.7c-1.6,0-2.7,1.1-2.7,3.2v7.1h-2.1V9.9z"/>
			</g>
		</g>
	</g>
</g>
</svg>
