<svg id="Layer_1" data-name="Layer 1" xmlns="http://www.w3.org/2000/svg" xmlns:xlink="http://www.w3.org/1999/xlink" viewBox="0 0 353.77 349.17"><defs><style>.cls-1{opacity:0.68;fill:url(#Unbenannter_Verlauf_10);}.cls-2{fill:url(#Unbenannter_Verlauf_10-2);}.cls-3{fill:url(#Unbenannter_Verlauf_10-3);}.cls-4{fill:url(#Unbenannter_Verlauf_10-4);}.cls-5{fill:url(#Unbenannter_Verlauf_10-5);}.cls-6{font-size:105px;fill:#fff;font-family:MyanmarText, Myanmar Text;}.cls-7{font-size:48px;font-family:MyanmarText-Bold, Myanmar Text;font-weight:700;}</style><linearGradient id="Unbenannter_Verlauf_10" x1="676.9" y1="440.87" x2="679.57" y2="440.87" gradientUnits="userSpaceOnUse"><stop offset="0" stop-color="#666"/><stop offset="0.18" stop-color="#616161"/><stop offset="0.39" stop-color="#535353"/><stop offset="0.61" stop-color="#3c3c3c"/><stop offset="0.83" stop-color="#1c1c1c"/><stop offset="1"/></linearGradient><linearGradient id="Unbenannter_Verlauf_10-2" x1="325.79" y1="450.25" x2="675.03" y2="450.25" xlink:href="#Unbenannter_Verlauf_10"/><linearGradient id="Unbenannter_Verlauf_10-3" x1="344.29" y1="373.49" x2="371.57" y2="373.49" xlink:href="#Unbenannter_Verlauf_10"/><linearGradient id="Unbenannter_Verlauf_10-4" x1="387.7" y1="453.95" x2="570.01" y2="453.95" xlink:href="#Unbenannter_Verlauf_10"/><linearGradient id="Unbenannter_Verlauf_10-5" x1="462.67" y1="425.91" x2="613.3" y2="425.91" xlink:href="#Unbenannter_Verlauf_10"/></defs><title>Logo V3 in Chat</title><path class="cls-1" d="M676.9,436.49a29.76,29.76,0,0,1,2.67,8.77C678.68,442.39,677.79,439.46,676.9,436.49Z" transform="translate(-325.79 -275.67)"/><path class="cls-2" d="M386.61,350.06c45.51-51.72,122.39-67.39,185.67-33.31,73.36,39.49,101.1,131.6,61.77,205C594.63,595.38,502.72,623.28,429,584c-63.16-33.7-92.75-106-75.21-172.45a11.38,11.38,0,0,0-5.6-13l-.29-.15a11.36,11.36,0,0,0-16.31,7.14,174.36,174.36,0,1,0,37.67-70.61,11.36,11.36,0,0,0,3.16,17.52l.29.15A11.35,11.35,0,0,0,386.61,350.06Z" transform="translate(-325.79 -275.67)"/><path class="cls-3" d="M345.9,367.07a13.64,13.64,0,1,1,5.61,18.45A13.63,13.63,0,0,1,345.9,367.07Z" transform="translate(-325.79 -275.67)"/><path class="cls-4" d="M478.85,375.91c-50.34,0-91.15,31.38-91.15,70.11,0,19,9.83,36.25,25.79,48.87-.92,12.88-4,28.63-13,37.11,17.87,0,36.13-11.19,47.67-19.94a115.66,115.66,0,0,0,30.69,4.08C529.2,516.14,570,484.77,570,446S529.2,375.91,478.85,375.91Z" transform="translate(-325.79 -275.67)"/><path class="cls-5" d="M600,452.85c7.67-10.25,12.06-22.17,12.06-34.87,0-38.74-40.81-70.12-91.16-70.12-22.15,0-42.46,6.09-58.25,16.18a125.33,125.33,0,0,1,23.2-2.16c54.21,0,98.16,34.54,98.16,77.13,0,16.79-6.8,32.34-18.4,45,11.51,8.75,29.8,20,47.67,20C600.59,491.89,599.68,465.16,600,452.85Z" transform="translate(-325.79 -275.67)"/><text class="cls-6" transform="translate(50.52 197.41)">easy</text><text class="cls-7" transform="translate(174.13 274.8)">chat</text></svg>