<svg xmlns="http://www.w3.org/2000/svg" xmlns:xlink="http://www.w3.org/1999/xlink" viewBox="0 0 354.77 350.17"><defs><style>.cls-1,.cls-2,.cls-3,.cls-6{stroke-miterlimit:10;}.cls-1{opacity:0.68;fill:url(#Unbenannter_Verlauf_34);stroke:url(#Unbenannter_Verlauf_9);}.cls-2{fill:url(#Unbenannter_Verlauf_34-2);stroke:url(#Unbenannter_Verlauf_9-2);}.cls-3{fill:url(#Unbenannter_Verlauf_34-3);stroke:url(#Unbenannter_Verlauf_9-3);}.cls-4{fill:url(#Unbenannter_Verlauf_33);}.cls-5{fill:url(#Unbenannter_Verlauf_33-2);}.cls-6{font-size:72px;stroke:#000;font-family:MyanmarText, Myanmar Text;}.cls-7{font-size:48px;fill:#fff;font-family:MyanmarText-Bold, Myanmar Text;font-weight:700;}</style><linearGradient id="Unbenannter_Verlauf_34" x1="351.6" y1="165.71" x2="354.27" y2="165.71" gradientUnits="userSpaceOnUse"><stop offset="0" stop-color="#747474"/><stop offset="0.03" stop-color="#848484"/><stop offset="0.08" stop-color="#a3a3a3"/><stop offset="0.15" stop-color="#bfbfbf"/><stop offset="0.23" stop-color="#d5d5d5"/><stop offset="0.31" stop-color="#e6e6e6"/><stop offset="0.42" stop-color="#f1f1f1"/><stop offset="0.58" stop-color="#f8f8f8"/><stop offset="1" stop-color="#fafafa"/></linearGradient><linearGradient id="Unbenannter_Verlauf_9" x1="351.12" y1="165.67" x2="354.77" y2="165.67" gradientUnits="userSpaceOnUse"><stop offset="0"/><stop offset="0.03" stop-color="#161616"/><stop offset="0.1" stop-color="#464646"/><stop offset="0.17" stop-color="#727272"/><stop offset="0.25" stop-color="#989898"/><stop offset="0.33" stop-color="#b8b8b8"/><stop offset="0.42" stop-color="#d2d2d2"/><stop offset="0.52" stop-color="#e6e6e6"/><stop offset="0.63" stop-color="#f4f4f4"/><stop offset="0.77" stop-color="#fdfdfd"/><stop offset="1" stop-color="#fff"/></linearGradient><linearGradient id="Unbenannter_Verlauf_34-2" x1="0.5" y1="175.09" x2="349.74" y2="175.09" xlink:href="#Unbenannter_Verlauf_34"/><linearGradient id="Unbenannter_Verlauf_9-2" x1="0" y1="175.09" x2="350.24" y2="175.09" xlink:href="#Unbenannter_Verlauf_9"/><linearGradient id="Unbenannter_Verlauf_34-3" x1="19" y1="98.32" x2="46.28" y2="98.32" xlink:href="#Unbenannter_Verlauf_34"/><linearGradient id="Unbenannter_Verlauf_9-3" x1="18.5" y1="98.32" x2="46.78" y2="98.32" xlink:href="#Unbenannter_Verlauf_9"/><linearGradient id="Unbenannter_Verlauf_33" x1="62.41" y1="178.79" x2="244.71" y2="178.79" gradientUnits="userSpaceOnUse"><stop offset="0" stop-color="#666"/><stop offset="0.04" stop-color="#7e7e7e"/><stop offset="0.09" stop-color="#9d9d9d"/><stop offset="0.16" stop-color="#b9b9b9"/><stop offset="0.24" stop-color="#cfcfcf"/><stop offset="0.32" stop-color="#e0e0e0"/><stop offset="0.43" stop-color="#ebebeb"/><stop offset="0.58" stop-color="#f2f2f2"/><stop offset="1" stop-color="#f4f4f4"/></linearGradient><linearGradient id="Unbenannter_Verlauf_33-2" x1="137.38" y1="150.74" x2="288" y2="150.74" xlink:href="#Unbenannter_Verlauf_33"/></defs><title>Element 1</title><g id="Ebene_2" data-name="Ebene 2"><g id="Layer_1" data-name="Layer 1"><path class="cls-1" d="M351.6,161.33a29.49,29.49,0,0,1,2.67,8.76Q353,165.79,351.6,161.33Z"/><path class="cls-2" d="M61.31,74.89C106.83,23.17,183.71,7.51,247,41.58c73.36,39.5,101.09,131.6,61.76,205-39.41,73.6-131.32,101.49-205,62.18C40.58,275.09,11,202.75,28.54,136.34a11.38,11.38,0,0,0-5.6-13l-.29-.16a11.36,11.36,0,0,0-16.31,7.14A174.59,174.59,0,0,0,225.9,342,174.54,174.54,0,0,0,125.57,7.7,173.41,173.41,0,0,0,44,59.75a11.34,11.34,0,0,0,3.16,17.51l.29.16A11.33,11.33,0,0,0,61.31,74.89Z"/><path class="cls-3" d="M20.6,91.9a13.64,13.64,0,1,1,5.62,18.46A13.65,13.65,0,0,1,20.6,91.9Z"/><path class="cls-4" d="M153.56,100.74c-50.34,0-91.15,31.39-91.15,70.12,0,19,9.83,36.25,25.79,48.87-.93,12.87-4,28.62-13,37.1,17.87,0,36.12-11.19,47.67-19.94A115.66,115.66,0,0,0,153.56,241c50.35,0,91.15-31.37,91.15-70.11S203.91,100.74,153.56,100.74Z"/><path class="cls-5" d="M274.72,177.69c7.68-10.25,12.06-22.17,12.06-34.88,0-38.73-40.8-70.12-91.15-70.12-22.15,0-42.46,6.09-58.25,16.19a124.45,124.45,0,0,1,23.19-2.16c54.22,0,98.17,34.54,98.17,77.13,0,16.78-6.8,32.33-18.4,45,11.51,8.75,29.8,20,47.66,20C275.3,216.73,274.39,190,274.72,177.69Z"/><text class="cls-6" transform="translate(85.02 190.91)">easy</text><text class="cls-7" transform="translate(174.63 275.3)">chat</text></g></g></svg>